<svg xmlns="http://www.w3.org/2000/svg" viewBox="0 0 32 32" id="Satellite-Antenna--Streamline-Twemoji" height="32" width="32">
  <desc>
    Satellite Antenna Streamline Emoji: https://streamlinehq.com
  </desc>
  <path fill="#99aab5" d="M9.552 19.12977777777778c1.4826666666666666 0 6.604444444444444 3.862222222222222 6.601777777777777 8.623111111111111 0.0026666666666666666 4.762666666666666 -13.202666666666666 4.762666666666666 -13.203555555555553 -0.0008888888888888888 0.0008888888888888888 -4.760888888888888 5.119111111111111 -8.622222222222222 6.601777777777777 -8.622222222222222z" stroke-width="0.8889"></path>
  <path fill="#ccd6dd" d="M7.592 22.383999999999997c7.856888888888889 7.857777777777777 15.410666666666666 4.589333333333333 17.807111111111112 2.1946666666666665 2.395555555555555 -2.3964444444444446 -0.14044444444444443 -8.814222222222222 -5.663111111111111 -14.33688888888889C14.211555555555554 4.718222222222222 7.792888888888888 2.1822222222222223 5.397333333333333 4.5777777777777775 3.0017777777777774 6.973333333333333 -0.2657777777777778 14.527111111111111 7.592 22.383999999999997z" stroke-width="0.8889"></path>
  <path fill="#66757f" d="M11.060444444444444 18.913777777777774c5.523555555555555 5.523555555555555 11.941333333333333 8.058666666666667 14.337777777777776 5.664 2.395555555555555 -2.3964444444444446 -0.14044444444444443 -8.814222222222222 -5.663111111111111 -14.33688888888889C14.211555555555554 4.718222222222222 7.792888888888888 2.1822222222222223 5.397333333333333 4.5777777777777775c-2.395555555555555 2.395555555555555 0.14044444444444443 8.814222222222222 5.663111111111111 14.335999999999999z" stroke-width="0.8889"></path>
  <path fill="#ccd6dd" d="M19.735111111111113 10.24088888888889c0.3937777777777778 0.39466666666666667 0.3937777777777778 1.0337777777777777 0 1.4284444444444444l-6.429333333333332 6.427555555555555c-0.39466666666666667 0.39466666666666667 -1.0337777777777777 0.39466666666666667 -1.4284444444444444 0 -0.39466666666666667 -0.3937777777777778 -0.39466666666666667 -1.0337777777777777 0 -1.4284444444444444l6.428444444444445 -6.427555555555555c0.39555555555555555 -0.39466666666666667 1.0337777777777777 -0.39466666666666667 1.4293333333333333 0z" stroke-width="0.8889"></path>
  <path fill="#ccd6dd" d="M21.163555555555554 8.813333333333333c0.7884444444444444 0.7884444444444444 0.7884444444444444 2.0684444444444443 0 2.856888888888889 -0.7893333333333333 0.7893333333333333 -2.0684444444444443 0.7893333333333333 -2.8577777777777773 0 -0.7884444444444444 -0.7884444444444444 -0.7884444444444444 -2.0684444444444443 0 -2.856888888888889 0.7884444444444444 -0.7902222222222222 2.0684444444444443 -0.7902222222222222 2.8577777777777773 0z" stroke-width="0.8889"></path>
  <path fill="#ffac33" d="m25.144 11.624888888888888 -0.04533333333333333 -0.0008888888888888888c-0.4906666666666667 -0.023999999999999997 -0.8675555555555555 -0.44177777777777777 -0.8435555555555555 -0.9315555555555556 0.0008888888888888888 -0.014222222222222221 0.055999999999999994 -1.9173333333333333 -1.4044444444444444 -3.3777777777777773 -1.4559999999999997 -1.455111111111111 -3.3528888888888884 -1.4035555555555554 -3.3786666666666667 -1.4044444444444444 -0.48888888888888893 0.029333333333333333 -0.9075555555555554 -0.3537777777777778 -0.9324444444444443 -0.8426666666666666 -0.023999999999999997 -0.4906666666666667 0.35288888888888886 -0.9084444444444444 0.8435555555555555 -0.9324444444444443 0.10844444444444444 -0.010666666666666666 2.6915555555555555 -0.10933333333333332 4.7235555555555555 1.9226666666666663 2.0328888888888885 2.0337777777777775 1.9288888888888887 4.614222222222222 1.9235555555555557 4.7235555555555555 -0.02311111111111111 0.4737777777777778 -0.416 0.8435555555555555 -0.8862222222222221 0.8435555555555555z" stroke-width="0.8889"></path>
  <path fill="#ffac33" d="M28.307555555555552 11.130666666666666c-0.09688888888888889 0 -0.19644444444444442 -0.016888888888888887 -0.29333333333333333 -0.050666666666666665 -0.4631111111111111 -0.16266666666666665 -0.7075555555555556 -0.6693333333333333 -0.5448888888888889 -1.1324444444444444 0.030222222222222223 -0.0951111111111111 0.7937777777777777 -2.5564444444444443 -1.9511111111111108 -5.3004444444444445 -2.7786666666666666 -2.779555555555555 -5.445333333333333 -2.145777777777778 -5.557333333333333 -2.1173333333333333 -0.4702222222222222 0.12177777777777778 -0.9573333333333333 -0.16355555555555554 -1.0808888888888888 -0.6355555555555555 -0.12444444444444445 -0.472 0.15288888888888888 -0.9546666666666667 0.6231111111111111 -1.0817777777777777 0.1511111111111111 -0.040888888888888884 3.7377777777777776 -0.9573333333333333 7.2719999999999985 2.5786666666666664 3.5697777777777775 3.568 2.423111111111111 7.0008888888888885 2.3715555555555556 7.145777777777777 -0.12799999999999997 0.3644444444444444 -0.472 0.5937777777777777 -0.839111111111111 0.5937777777777777z" stroke-width="0.8889"></path>
  <path fill="#66757f" d="M9.701333333333332 28.907555555555554c-2.5777777777777775 0 -4.9271111111111106 -0.5848888888888889 -6.7253333333333325 -1.544 -0.007111111111111111 0.12977777777777777 -0.025777777777777778 0.2577777777777778 -0.025777777777777778 0.3893333333333333 0.0008888888888888888 4.7635555555555555 13.206222222222221 4.7635555555555555 13.203555555555553 0.0008888888888888888 0 -0.07999999999999999 -0.013333333333333332 -0.15733333333333333 -0.015999999999999997 -0.23644444444444446 -1.7573333333333334 0.8675555555555555 -3.9964444444444447 1.3902222222222222 -6.436444444444444 1.3902222222222222z" stroke-width="0.8889"></path>
</svg>